<svg width="24" height="24" viewBox="0 0 24 24" fill="none" xmlns="http://www.w3.org/2000/svg">
<path d="M12 6.90002C9.2 6.90002 6.9 9.20002 6.9 12C6.9 14.8 9.2 17.1 12 17.1C14.8 17.1 17.1 14.8 17.1 12C17.1 9.20002 14.8 6.90002 12 6.90002ZM12 15.3C10.2 15.3 8.7 13.8 8.7 12C8.7 10.2 10.2 8.70002 12 8.70002C13.8 8.70002 15.3 10.2 15.3 12C15.3 13.8 13.8 15.3 12 15.3ZM18.5 6.70002C18.5 7.40002 18 7.90002 17.3 7.90002C16.6 7.90002 16.1 7.40002 16.1 6.70002C16.1 6.00002 16.6 5.50002 17.3 5.50002C18 5.50002 18.5 6.00002 18.5 6.70002ZM21.9 7.90002C21.8 6.30002 21.5 4.90002 20.3 3.70002C19.1 2.50002 17.7 2.20002 16.1 2.10002C14.5 2.00002 9.5 2.00002 7.9 2.10002C6.3 2.20002 4.9 2.50002 3.7 3.70002C2.5 4.90002 2.2 6.30002 2.1 7.90002C2 9.50002 2 14.5 2.1 16.1C2.2 17.7 2.5 19.1 3.7 20.3C4.9 21.5 6.3 21.8 7.9 21.9C9.6 22 14.5 22 16.1 21.9C17.7 21.8 19.1 21.5 20.3 20.3C21.5 19.1 21.8 17.7 21.9 16.1C22 14.5 22 9.50002 21.9 7.90002ZM19.8 17.9C19.5 18.8 18.8 19.4 17.9 19.8C16.6 20.3 13.5 20.2 12 20.2C10.5 20.2 7.4 20.3 6.1 19.8C5.2 19.5 4.6 18.8 4.2 17.9C3.7 16.6 3.8 13.5 3.8 12C3.8 10.5 3.7 7.40002 4.2 6.10002C4.5 5.20002 5.2 4.60002 6.1 4.20002C7.4 3.70002 10.5 3.80002 12 3.80002C13.5 3.80002 16.6 3.70002 17.9 4.20002C18.8 4.50002 19.4 5.20002 19.8 6.10002C20.3 7.40002 20.2 10.5 20.2 12C20.2 13.5 20.3 16.6 19.8 17.9Z" fill="#B2E4FF"/>
</svg>
