<svg width="24" height="24" viewBox="0 0 24 24" fill="none" xmlns="http://www.w3.org/2000/svg">
<path d="M19.9 7.4C19.9 7.6 19.9 7.8 19.9 8C19.9 13.9 15.8 20.7 8.19999 20.7C5.89999 20.7 3.69999 20 1.89999 18.7C2.19999 18.7 2.49999 18.8 2.89999 18.8C4.79999 18.8 6.59999 18.1 7.99999 16.9C6.19999 16.9 4.69999 15.6 4.19999 13.8C4.49999 13.8 4.69999 13.9 4.99999 13.9C5.39999 13.9 5.69999 13.8 6.09999 13.7C4.19999 13.3 2.79999 11.5 2.79999 9.3V9.2C3.39999 9.6 3.99999 9.8 4.69999 9.8C3.59999 9 2.79999 7.6 2.79999 6.1C2.79999 5.3 2.99999 4.5 3.39999 3.8C5.39999 6.5 8.49999 8.3 11.9 8.5C11.8 8.2 11.8 7.8 11.8 7.5C11.7 5 13.6 3 15.8 3C17 3 18 3.5 18.8 4.4C19.7 4.2 20.6 3.8 21.4 3.3C21.1 4.3 20.4 5.2 19.6 5.8C20.4 5.7 21.2 5.5 22 5.1C21.4 6 20.7 6.8 19.9 7.4Z" fill="#B2E4FF"/>
</svg>
